<svg xmlns="http://www.w3.org/2000/svg" width="25.082" height="26" viewBox="0 0 25.082 26">
  <g id="Grupo_6" data-name="Grupo 6" transform="translate(0.5 0.5)">
    <path id="Trazado_31034" data-name="Trazado 31034" d="M8150.718-923.529v-6.438h-22.189v17.029h22.189v-5" transform="translate(-8128.528 937.938)" fill="none" stroke="#000" stroke-linecap="round" stroke-linejoin="round" stroke-width="1"/>
    <path id="Trazado_31035" data-name="Trazado 31035" d="M8254.535-1037.414l12.348-5.554,3.383,5.554" transform="translate(-8249.535 1045.384)" fill="none" stroke="#000" stroke-linecap="round" stroke-linejoin="round" stroke-width="1"/>
    <path id="Trazado_31036" data-name="Trazado 31036" d="M8168.885-1084.23l11.519-7.92,2.554,3.351" transform="translate(-8167.673 1092.15)" fill="none" stroke="#000" stroke-linecap="round" stroke-linejoin="round" stroke-width="1"/>
    <path id="Rectángulo_7463" data-name="Rectángulo 7463" d="M2.714,0h5.2a0,0,0,0,1,0,0V5.427a0,0,0,0,1,0,0h-5.2A2.714,2.714,0,0,1,0,2.714v0A2.714,2.714,0,0,1,2.714,0Z" transform="translate(16.169 14.409)" fill="none" stroke="#000" stroke-linecap="round" stroke-linejoin="round" stroke-width="1"/>
  </g>
</svg>